<?xml version="1.0" encoding="UTF-8" standalone="no" ?>
<!DOCTYPE svg PUBLIC "-//W3C//DTD SVG 1.1//EN" "http://www.w3.org/Graphics/SVG/1.1/DTD/svg11.dtd">
<svg xmlns="http://www.w3.org/2000/svg" xmlns:xlink="http://www.w3.org/1999/xlink" version="1.1" width="1280" height="1024" viewBox="0 0 1280 1024" xml:space="preserve">
<desc>Created with Fabric.js 4.4.0</desc>
<defs>
</defs>
<g transform="matrix(1 0 0 1 640 512)" id="background-logo"  >
<rect style="stroke: none; stroke-width: 0; stroke-dasharray: none; stroke-linecap: butt; stroke-dashoffset: 0; stroke-linejoin: miter; stroke-miterlimit: 4; fill: rgb(255,255,255); fill-opacity: 0; fill-rule: nonzero; opacity: 1;"  paint-order="stroke"  x="-640" y="-512" rx="0" ry="0" width="1280" height="1024" />
</g>
<g transform="matrix(1.9211538461538462 0 0 1.9211538461538462 633.8138846153846 784.5694422834109)" id="text-logo-path-group"  >
<g style=""  paint-order="stroke"   >
		<g transform="matrix(1 0 0 1 0 0)" id="text-logo-path-0"  >
<path style="stroke: rgb(94,156,243); stroke-width: 22; stroke-dasharray: none; stroke-linecap: butt; stroke-dashoffset: 0; stroke-linejoin: miter; stroke-miterlimit: 4; fill: rgb(255,255,255); fill-rule: nonzero; opacity: 1;"  paint-order="stroke"  transform=" translate(-167.9, 31.05)" d="M 29.72 -18.77 C 29.72 -23.55 28.43 -27.32 25.76 -30.18 L 26.5 -30.91 C 29.35 -33.76 30.36 -38.36 30.36 -44.07 C 30.36 -56.4 26.4 -62.1 15.09 -62.1 L 3.5 -62.1 C 1.66 -62.1 0.18 -60.63 0.18 -58.79 L 0.18 -3.4 C 0.18 -1.56 1.66 -0.09 3.5 -0.09 L 6.07 -0.09 C 7.82 -0.09 9.29 -1.56 9.29 -3.4 L 9.29 -25.94 L 13.43 -25.94 C 17.94 -25.94 20.52 -23.37 20.52 -18.77 L 20.52 -3.4 C 20.52 -1.56 21.99 -0.09 23.83 -0.09 L 26.4 -0.09 C 28.24 -0.09 29.72 -1.56 29.72 -3.4 Z M 9.29 -52.9 L 15.09 -52.9 C 19.87 -52.9 21.25 -50.32 21.25 -44.07 C 21.25 -37.81 18.58 -35.24 13.43 -35.24 L 9.29 -35.24 Z M 36.71 -18.03 C 36.71 -10.76 38.73 -6.53 41.58 -3.68 C 44.62 -0.74 48.48 0 51.8 0 C 55.2 0 59.06 -0.74 62.1 -3.68 C 64.95 -6.53 66.88 -10.76 66.88 -18.03 L 66.88 -44.07 C 66.88 -55.75 61.92 -62.01 51.8 -62.01 C 41.77 -62.01 36.71 -55.66 36.71 -44.07 Z M 45.91 -44.07 C 45.91 -50.05 47.75 -52.9 51.8 -52.9 C 55.75 -52.9 57.68 -50.23 57.68 -44.07 L 57.68 -18.03 C 57.68 -11.78 55.66 -9.11 51.8 -9.11 C 47.84 -9.11 45.91 -11.96 45.91 -18.03 Z M 91.36 0 C 92.74 0 94.21 -1.2 94.58 -2.67 L 97.61 -23.09 L 97.61 -3.31 C 97.61 -1.47 99.08 0 100.92 0 L 103.5 0 C 105.34 0 106.81 -1.47 106.81 -3.31 L 106.81 -58.7 C 106.81 -60.54 105.34 -62.01 103.5 -62.01 L 100.74 -62.01 C 99.36 -62.01 97.8 -60.81 97.52 -59.43 L 90.34 -22.36 L 83.08 -59.43 C 82.8 -60.81 81.33 -62.01 79.95 -62.01 L 77.19 -62.01 C 75.35 -62.01 73.88 -60.54 73.88 -58.7 L 73.88 -3.31 C 73.88 -1.47 75.35 0 77.19 0 L 79.76 0 C 81.51 0 83.08 -1.47 83.08 -3.31 L 83.08 -23.28 L 86.2 -2.58 C 86.48 -1.2 87.95 0 89.33 0 Z M 151.98 -31.1 C 146.56 -31.1 146.83 -21.9 151.98 -21.9 L 155.2 -21.9 L 155.2 -17.94 C 155.2 -11.96 153.27 -9.11 149.32 -9.11 C 145.27 -9.11 143.34 -11.96 143.34 -17.94 L 143.34 -44.16 C 143.34 -48.39 144.16 -50.6 145.45 -51.7 C 146.46 -52.72 148.03 -52.9 149.32 -52.9 C 150.6 -52.9 152.08 -52.72 153.18 -51.7 C 154.28 -50.69 155.2 -48.48 155.2 -44.16 L 155.2 -42.87 C 155.2 -41.03 156.68 -39.56 158.52 -39.56 L 161.18 -39.56 C 162.93 -39.56 164.4 -41.03 164.4 -42.87 L 164.4 -44.16 C 164.4 -55.84 159.44 -62.01 149.32 -62.01 C 139.2 -62.01 134.14 -55.84 134.14 -44.16 L 134.14 -17.94 C 134.14 -6.35 139.2 0 149.32 0 C 159.44 0 164.4 -6.26 164.4 -17.94 L 164.4 -27.78 C 164.4 -29.62 162.93 -31.1 161.18 -31.1 Z M 196.14 -2.58 C 196.51 -1.2 197.98 0 199.36 0 L 202.03 0 C 204.24 0 205.71 -1.93 205.25 -4.05 L 192.56 -59.43 C 192.28 -60.81 190.72 -62.01 189.34 -62.01 L 187.31 -62.01 C 185.93 -62.01 184.46 -60.81 184.09 -59.43 L 175.72 -23.46 L 171.3 -3.96 C 170.84 -1.84 172.32 0 174.52 0 L 177.19 0 C 178.57 0 180.04 -1.2 180.41 -2.58 L 183.63 -16.93 L 193.02 -16.93 Z M 188.32 -40.76 C 190.07 -32.94 189.89 -30.45 190.9 -26.04 L 185.75 -26.04 Z M 229.08 0 C 230.46 0 231.93 -1.2 232.3 -2.67 L 235.34 -23.09 L 235.34 -3.31 C 235.34 -1.47 236.81 0 238.65 0 L 241.22 0 C 243.06 0 244.54 -1.47 244.54 -3.31 L 244.54 -58.7 C 244.54 -60.54 243.06 -62.01 241.22 -62.01 L 238.46 -62.01 C 237.08 -62.01 235.52 -60.81 235.24 -59.43 L 228.07 -22.36 L 220.8 -59.43 C 220.52 -60.81 219.05 -62.01 217.67 -62.01 L 214.91 -62.01 C 213.07 -62.01 211.6 -60.54 211.6 -58.7 L 211.6 -3.31 C 211.6 -1.47 213.07 0 214.91 0 L 217.49 0 C 219.24 0 220.8 -1.47 220.8 -3.31 L 220.8 -23.28 L 223.93 -2.58 C 224.2 -1.2 225.68 0 227.06 0 Z M 261.37 -58.7 C 261.37 -60.54 259.81 -62.01 258.06 -62.01 L 255.48 -62.01 C 253.64 -62.01 252.17 -60.54 252.17 -58.7 L 252.17 -3.31 C 252.17 -1.47 253.64 0 255.48 0 L 258.06 0 C 259.81 0 261.37 -1.47 261.37 -3.31 Z M 294.77 0 C 296.61 0 298.08 -1.47 298.08 -3.31 L 298.08 -58.7 C 298.08 -60.54 296.61 -62.01 294.77 -62.01 L 292.19 -62.01 C 290.35 -62.01 288.88 -60.54 288.88 -58.7 L 288.88 -28.34 L 276.09 -59.98 C 275.72 -61 274.25 -62.01 273.06 -62.01 L 270.85 -62.01 C 269.1 -62.01 267.54 -60.54 267.54 -58.7 L 267.54 -3.31 C 267.54 -1.47 269.1 0 270.85 0 L 273.52 0 C 275.26 0 276.83 -1.47 276.83 -3.31 L 276.83 -33.67 L 289.62 -2.02 C 289.98 -1.01 291.55 0 292.65 0 Z M 323.2 -31.1 C 317.77 -31.1 318.04 -21.9 323.2 -21.9 L 326.42 -21.9 L 326.42 -17.94 C 326.42 -11.96 324.48 -9.11 320.53 -9.11 C 316.48 -9.11 314.55 -11.96 314.55 -17.94 L 314.55 -44.16 C 314.55 -48.39 315.38 -50.6 316.66 -51.7 C 317.68 -52.72 319.24 -52.9 320.53 -52.9 C 321.82 -52.9 323.29 -52.72 324.39 -51.7 C 325.5 -50.69 326.42 -48.48 326.42 -44.16 L 326.42 -42.87 C 326.42 -41.03 327.89 -39.56 329.73 -39.56 L 332.4 -39.56 C 334.14 -39.56 335.62 -41.03 335.62 -42.87 L 335.62 -44.16 C 335.62 -55.84 330.65 -62.01 320.53 -62.01 C 310.41 -62.01 305.35 -55.84 305.35 -44.16 L 305.35 -17.94 C 305.35 -6.35 310.41 0 320.53 0 C 330.65 0 335.62 -6.26 335.62 -17.94 L 335.62 -27.78 C 335.62 -29.62 334.14 -31.1 332.4 -31.1 Z" stroke-linecap="round" />
</g>
</g>
</g>
<g transform="matrix(1.9531939349641583 0 0 1.9531939349641583 640 371.18067274015823)" id="logo-logo"  >
<g style=""  paint-order="stroke"   >
		<g transform="matrix(0.6532044498096313 0 0 0.633178049123213 -0.4517207476125691 -68.38819760255902)"  >
<g style=""  paint-order="stroke"   >
		<g transform="matrix(1 0 0 1 0 0)"  >
<rect style="stroke: none; stroke-width: 1; stroke-dasharray: none; stroke-linecap: butt; stroke-dashoffset: 0; stroke-linejoin: miter; stroke-miterlimit: 4; fill: rgb(152,164,179); fill-rule: nonzero; opacity: 1;"  paint-order="stroke"  x="-100" y="-100" rx="40" ry="40" width="200" height="200" />
</g>
</g>
</g>
		<g transform="matrix(1.2154734948266839 0 0 0.16638859617458812 -0.8401677143563688 -7.608523818324699)"  >
<g style=""  paint-order="stroke"   >
		<g transform="matrix(1 0 0 1 0 0)"  >
<path style="stroke: none; stroke-width: 1; stroke-dasharray: none; stroke-linecap: butt; stroke-dashoffset: 0; stroke-linejoin: miter; stroke-miterlimit: 4; fill: rgb(152,164,179); fill-rule: nonzero; opacity: 1;"  paint-order="stroke"  transform=" translate(-100, -100)" d="M 200 100 C 200 155.22847498307934 155.22847498307934 200 100 200 C 44.771525016920656 200 0 155.22847498307934 0 100 C 0 44.771525016920656 44.771525016920656 0 100 0 C 155.22847498307934 0 200 44.77152501692063 200 99.99999999999997 Z" stroke-linecap="round" />
</g>
</g>
</g>
		<g transform="matrix(0.37821593440362367 0 0 0.3782159344036237 65.2377309426484 90.11908081662077)"  >
<g style=""  paint-order="stroke"   >
		<g transform="matrix(1 0 0 1 0 0)"  >
<path style="stroke: none; stroke-width: 1; stroke-dasharray: none; stroke-linecap: butt; stroke-dashoffset: 0; stroke-linejoin: miter; stroke-miterlimit: 4; fill: rgb(111,208,241); fill-rule: nonzero; opacity: 1;"  paint-order="stroke"  transform=" translate(-100, -100)" d="M 200 100 C 200 155.22847498307934 155.22847498307934 200 100 200 C 44.771525016920656 200 0 155.22847498307934 0 100 C 0 44.771525016920656 44.771525016920656 0 100 0 C 155.22847498307934 0 200 44.77152501692063 200 99.99999999999997 Z" stroke-linecap="round" />
</g>
</g>
</g>
		<g transform="matrix(0.8943757960284244 0 0 0.32674040714807545 0.8915518209458924 47.98799581033572)"  >
<g style=""  paint-order="stroke"   >
		<g transform="matrix(1 0 0 1 0 0)"  >
<rect style="stroke: none; stroke-width: 1; stroke-dasharray: none; stroke-linecap: butt; stroke-dashoffset: 0; stroke-linejoin: miter; stroke-miterlimit: 4; fill: rgb(111,208,241); fill-rule: nonzero; opacity: 1;"  paint-order="stroke"  x="-100" y="-100" rx="40" ry="40" width="200" height="200" />
</g>
</g>
</g>
		<g transform="matrix(0.383553232389138 0 0 0.3835532323891381 -63.43803657801857 87.22061829736978)"  >
<g style=""  paint-order="stroke"   >
		<g transform="matrix(1 0 0 1 0 0)"  >
<path style="stroke: none; stroke-width: 1; stroke-dasharray: none; stroke-linecap: butt; stroke-dashoffset: 0; stroke-linejoin: miter; stroke-miterlimit: 4; fill: rgb(111,208,241); fill-rule: nonzero; opacity: 1;"  paint-order="stroke"  transform=" translate(-100, -100)" d="M 200 100 C 200 155.22847498307934 155.22847498307934 200 100 200 C 44.771525016920656 200 0 155.22847498307934 0 100 C 0 44.771525016920656 44.771525016920656 0 100 0 C 155.22847498307934 0 200 44.77152501692063 200 99.99999999999997 Z" stroke-linecap="round" />
</g>
</g>
</g>
		<g transform="matrix(0.3017438115281004 0 0 -0.3017438115281004 0.00000140237693813106 71.65064321437782)"  >
<path style="stroke: none; stroke-width: 1; stroke-dasharray: none; stroke-linecap: butt; stroke-dashoffset: 0; stroke-linejoin: miter; stroke-miterlimit: 4; fill: rgb(111,208,241); fill-rule: nonzero; opacity: 1;"  paint-order="stroke"  transform=" translate(-438.1915039350039, -222.79276980534718)" d="M 258.031 390.387 C 237.184 391.852 217.16 393.578 198.15200000000002 395.57 C 176.359 358.543 155.57800000000003 305.09 145.64800000000002 228.32399999999998 C 143.09000000000003 208.504 141.93800000000002 190.594 141.93800000000002 174.52299999999997 C 141.92200000000003 136.76599999999996 148.34400000000002 109.27299999999997 157.31600000000003 90.43749999999997 C 166.36300000000003 71.54689999999997 177.49200000000002 61.195299999999975 188.71100000000004 55.49999999999997 C 196.23400000000004 51.73049999999997 204.02700000000004 50.01169999999997 211.96100000000004 49.99999999999997 C 228.45300000000003 49.92969999999997 245.59800000000004 57.91409999999997 256.91400000000004 71.37109999999997 C 270.02700000000004 86.84379999999997 281.83600000000007 105.14799999999997 293.97700000000003 123.97999999999996 C 306.156 142.79699999999997 318.641 162.15999999999997 334.21500000000003 179.53099999999995 C 344.598 191.08599999999996 356.46500000000003 201.77699999999996 370.605 210.22999999999996 C 389.406 221.55899999999997 412.289 228.39499999999995 438.19100000000003 228.31599999999997 C 457.61300000000006 228.33999999999997 475.35200000000003 224.58999999999997 490.93 217.83999999999997 C 506.527 211.11699999999996 519.828 201.55899999999997 531.2620000000001 190.74599999999998 C 554.1170000000001 169.02299999999997 570.258 142.60199999999998 586.4490000000001 117.72699999999998 C 597.1840000000001 101.11299999999997 607.816 85.12889999999997 619.4730000000001 71.37109999999998 C 630.789 57.9141 647.93 49.9297 664.422 50 C 672.355 50.0117 680.148 51.7305 687.676 55.5 C 695.191 59.2969 702.551 65.168 709.398 74.2461 C 723.0310000000001 92.2695 734.469 124.102 734.445 174.523 C 734.445 190.594 733.293 208.504 730.734 228.324 C 720.801 305.141 699.988 358.559 678.188 395.586 C 608.441 388.273 525.055 384.48400000000004 438.191 384.473 C 375.03099999999995 384.473 313.62899999999996 386.48400000000004 258.03099999999995 390.387" stroke-linecap="round" />
</g>
		<g transform="matrix(0.3017438115281004 0 0 -0.3017438115281004 -48.82410982500767 42.168694649212796)"  >
<path style="stroke: none; stroke-width: 1; stroke-dasharray: none; stroke-linecap: butt; stroke-dashoffset: 0; stroke-linejoin: miter; stroke-miterlimit: 4; fill: rgb(29,66,103); fill-rule: nonzero; opacity: 1;"  paint-order="stroke"  transform=" translate(-276.385, -320.49799999999993)" d="M 276.387 286.441 L 276.387 286.441 C 266.555 286.441 258.582 294.40999999999997 258.582 304.24199999999996 L 258.582 336.75399999999996 C 258.582 346.58599999999996 266.555 354.55499999999995 276.387 354.55499999999995 L 276.387 354.55499999999995 C 286.219 354.55499999999995 294.188 346.58599999999996 294.188 336.75399999999996 L 294.188 304.24199999999996 C 294.188 294.40999999999997 286.219 286.441 276.387 286.441" stroke-linecap="round" />
</g>
		<g transform="matrix(0.3017438115281004 0 0 -0.3017438115281004 -48.82410982500767 72.57526766499367)"  >
<path style="stroke: none; stroke-width: 1; stroke-dasharray: none; stroke-linecap: butt; stroke-dashoffset: 0; stroke-linejoin: miter; stroke-miterlimit: 4; fill: rgb(29,66,103); fill-rule: nonzero; opacity: 1;"  paint-order="stroke"  transform=" translate(-276.385, -219.7285)" d="M 276.387 185.672 L 276.387 185.672 C 266.555 185.672 258.582 193.641 258.582 203.47299999999998 L 258.582 235.98 C 258.582 245.813 266.555 253.785 276.387 253.785 L 276.387 253.785 C 286.219 253.785 294.188 245.813 294.188 235.98 L 294.188 203.47299999999998 C 294.188 193.641 286.219 185.672 276.387 185.672" stroke-linecap="round" />
</g>
		<g transform="matrix(0.3017438115281004 0 0 -0.3017438115281004 -64.0280752564741 57.37250920877344)"  >
<path style="stroke: none; stroke-width: 1; stroke-dasharray: none; stroke-linecap: butt; stroke-dashoffset: 0; stroke-linejoin: miter; stroke-miterlimit: 4; fill: rgb(29,66,103); fill-rule: nonzero; opacity: 1;"  paint-order="stroke"  transform=" translate(-225.99800000000002, -270.1115)" d="M 260.055 270.113 L 260.055 270.113 C 260.055 260.281 252.086 252.309 242.25400000000002 252.309 L 209.74200000000002 252.309 C 199.91000000000003 252.309 191.94100000000003 260.281 191.94100000000003 270.113 C 191.94100000000003 279.945 199.91000000000003 287.914 209.74200000000002 287.914 L 242.25400000000002 287.914 C 252.086 287.914 260.055 279.945 260.055 270.113" stroke-linecap="round" />
</g>
		<g transform="matrix(0.3017438115281004 0 0 -0.3017438115281004 -33.62029526544711 57.37250920877344)"  >
<path style="stroke: none; stroke-width: 1; stroke-dasharray: none; stroke-linecap: butt; stroke-dashoffset: 0; stroke-linejoin: miter; stroke-miterlimit: 4; fill: rgb(29,66,103); fill-rule: nonzero; opacity: 1;"  paint-order="stroke"  transform=" translate(-326.77149999999995, -270.1115)" d="M 360.828 270.113 L 360.828 270.113 C 360.828 260.281 352.85499999999996 252.309 343.02299999999997 252.309 L 310.51599999999996 252.309 C 300.68399999999997 252.309 292.715 260.281 292.715 270.113 C 292.715 279.945 300.68399999999997 287.914 310.51599999999996 287.914 L 343.02299999999997 287.914 C 352.85499999999996 287.914 360.828 279.945 360.828 270.113" stroke-linecap="round" />
</g>
		<g transform="matrix(0.3017438115281004 0 0 -0.3017438115281004 49.175943539277114 40.47892930465531)"  >
<path style="stroke: none; stroke-width: 1; stroke-dasharray: none; stroke-linecap: butt; stroke-dashoffset: 0; stroke-linejoin: miter; stroke-miterlimit: 4; fill: rgb(29,66,103); fill-rule: nonzero; opacity: 1;"  paint-order="stroke"  transform=" translate(-601.164, -326.098)" d="M 628.457 326.098 C 628.457 311.023 616.2379999999999 298.805 601.164 298.805 C 586.0939999999999 298.805 573.871 311.023 573.871 326.098 C 573.871 341.172 586.0939999999999 353.391 601.164 353.391 C 616.2379999999999 353.391 628.457 341.172 628.457 326.098" stroke-linecap="round" />
</g>
		<g transform="matrix(0.3017438115281004 0 0 -0.3017438115281004 49.175943539277114 74.26488213764529)"  >
<path style="stroke: none; stroke-width: 1; stroke-dasharray: none; stroke-linecap: butt; stroke-dashoffset: 0; stroke-linejoin: miter; stroke-miterlimit: 4; fill: rgb(29,66,103); fill-rule: nonzero; opacity: 1;"  paint-order="stroke"  transform=" translate(-601.164, -214.129)" d="M 628.457 214.129 C 628.457 199.05499999999998 616.2379999999999 186.83599999999998 601.164 186.83599999999998 C 586.0939999999999 186.83599999999998 573.871 199.05499999999998 573.871 214.129 C 573.871 229.203 586.0939999999999 241.422 601.164 241.422 C 616.2379999999999 241.422 628.457 229.203 628.457 214.129" stroke-linecap="round" />
</g>
		<g transform="matrix(0.3017438115281004 0 0 -0.3017438115281004 32.28372148231108 57.372056593056044)"  >
<path style="stroke: none; stroke-width: 1; stroke-dasharray: none; stroke-linecap: butt; stroke-dashoffset: 0; stroke-linejoin: miter; stroke-miterlimit: 4; fill: rgb(29,66,103); fill-rule: nonzero; opacity: 1;"  paint-order="stroke"  transform=" translate(-545.182, -270.113)" d="M 545.18 297.406 C 560.2539999999999 297.406 572.473 285.188 572.473 270.113 C 572.473 255.039 560.2539999999999 242.82 545.18 242.82 C 530.1089999999999 242.82 517.891 255.039 517.891 270.113 C 517.891 285.188 530.1089999999999 297.406 545.18 297.406" stroke-linecap="round" />
</g>
		<g transform="matrix(0.3017438115281004 0 0 -0.3017438115281004 66.06876908386647 57.372056593056044)"  >
<path style="stroke: none; stroke-width: 1; stroke-dasharray: none; stroke-linecap: butt; stroke-dashoffset: 0; stroke-linejoin: miter; stroke-miterlimit: 4; fill: rgb(29,66,103); fill-rule: nonzero; opacity: 1;"  paint-order="stroke"  transform=" translate(-657.148, -270.113)" d="M 657.148 297.406 C 672.2230000000001 297.406 684.441 285.188 684.441 270.113 C 684.441 255.039 672.2230000000001 242.82 657.148 242.82 C 642.078 242.82 629.855 255.039 629.855 270.113 C 629.855 285.188 642.078 297.406 657.148 297.406" stroke-linecap="round" />
</g>
		<g transform="matrix(0.3017438115281004 0 0 -0.3017438115281004 0 -58.006178699305224)"  >
<path style="stroke: none; stroke-width: 1; stroke-dasharray: none; stroke-linecap: butt; stroke-dashoffset: 0; stroke-linejoin: miter; stroke-miterlimit: 4; fill: rgb(29,66,103); fill-rule: nonzero; opacity: 1;"  paint-order="stroke"  transform=" translate(-438.1914992874289, -652.4845048473051)" d="M 817.504 474.617 C 806.105 469.195 786.6370000000001 463.309 761.988 458.31600000000003 C 724.918 450.73400000000004 675.902 444.70300000000003 620.297 440.65200000000004 C 564.672 436.59400000000005 502.367 434.46900000000005 438.19100000000003 434.47300000000007 C 330.57800000000003 434.45700000000005 228.07800000000003 440.4770000000001 153.82000000000005 451.4770000000001 C 116.77700000000004 456.91800000000006 86.64060000000005 463.78100000000006 67.80080000000005 470.8950000000001 C 63.71090000000005 472.4020000000001 60.30080000000005 473.9340000000001 57.41800000000005 475.3710000000001 C 62.160200000000046 477.8590000000001 68.46480000000005 480.6450000000001 76.09380000000004 483.3710000000001 C 92.48440000000005 489.2850000000001 114.52000000000004 495.1210000000001 139.79300000000003 500.3280000000001 C 165.08600000000004 505.5510000000001 193.68400000000003 510.1950000000001 223.66400000000004 514.0590000000001 L 245.46500000000003 516.8710000000001 L 245.46500000000003 821.508 C 245.48000000000002 835.1170000000001 250.91000000000003 847.2030000000001 259.81300000000005 856.148 C 268.75800000000004 865.051 280.84800000000007 870.484 294.45300000000003 870.496 L 581.93 870.496 C 595.535 870.484 607.625 865.0509999999999 616.5699999999999 856.148 C 625.473 847.203 630.906 835.1170000000001 630.9179999999999 821.508 L 630.9179999999999 516.871 L 652.7229999999998 514.059 C 704.6559999999998 507.38699999999994 752.6249999999999 498.24199999999996 786.0469999999998 488.066 C 800.1019999999997 483.83599999999996 811.5549999999998 479.289 819.0039999999998 475.37899999999996 C 818.4839999999998 475.121 818.0659999999998 474.87499999999994 817.5039999999998 474.61699999999996 z M 873.398 490.125 C 869.895 498.305 864.645 503.945 859.1990000000001 508.57 C 849.551 516.559 838.297 522.137 824.9490000000001 527.5 C 804.9770000000001 535.395 780.2620000000001 542.145 752.027 548.18 C 730.094 552.852 706.066 557.016 680.918 560.6479999999999 L 680.918 821.5079999999999 C 680.902 876.1879999999999 636.609 920.4799999999999 581.9300000000001 920.4959999999999 L 294.453 920.4959999999999 C 267.19899999999996 920.5079999999998 242.29299999999998 909.3789999999999 224.46099999999996 891.5039999999999 C 206.58599999999996 873.6719999999999 195.45299999999995 848.7659999999998 195.46899999999997 821.5079999999999 L 195.46899999999997 560.656 C 150.086 554.098 108.508 545.816 75.8086 535.91 C 56.8047 530.094 40.8242 523.93 27.6953 516.02 C 21.125 511.992 15.1289 507.539 9.85547 501.277 C 7.24219 498.137 4.81641 494.477 2.98438 490.125 C 1.15234 485.801 -0.0117188 480.73 0 475.527 C -0.0390625 467.984 2.36328 460.67199999999997 5.8125 455.008 C 9.05078 449.633 13.043 445.445 17.273400000000002 441.89099999999996 C 25.257800000000003 435.28099999999995 34.304700000000004 430.56999999999994 44.7109 426.246 C 62.890600000000006 418.813 85.4922 412.914 112.387 407.75 C 152.664 400.063 202.41 394.297 258.031 390.387 C 313.629 386.484 375.031 384.473 438.19100000000003 384.473 C 547.73 384.48400000000004 651.828 390.488 729.879 402.016 C 768.988 407.84000000000003 801.434 414.867 826.1370000000001 424.074 C 838.527 428.777 849.0820000000001 433.85900000000004 858.254 441.188 C 862.816 444.895 867.113 449.27299999999997 870.57 455.008 C 874.0200000000001 460.67199999999997 876.422 467.984 876.383 475.527 C 876.395 480.72999999999996 875.23 485.801 873.398 490.125" stroke-linecap="round" />
</g>
		<g transform="matrix(0.3017438115281004 0 0 -0.3017438115281004 0.005884219338724961 -58.00617243718361)"  >
<path style="stroke: none; stroke-width: 1; stroke-dasharray: none; stroke-linecap: butt; stroke-dashoffset: 0; stroke-linejoin: miter; stroke-miterlimit: 4; fill: rgb(152,164,179); fill-rule: nonzero; opacity: 1;"  paint-order="stroke"  transform=" translate(-438.211, -652.4844840941979)" d="M 630.918 821.508 C 630.9060000000001 835.1170000000001 625.473 847.2030000000001 616.57 856.148 C 607.625 865.051 595.5350000000001 870.484 581.9300000000001 870.496 L 294.453 870.496 C 280.84799999999996 870.484 268.758 865.0509999999999 259.813 856.148 C 250.91 847.203 245.48 835.1170000000001 245.46499999999997 821.508 L 245.46499999999997 516.871 L 223.664 514.059 C 193.684 510.195 165.08599999999998 505.551 139.793 500.328 C 114.52000000000001 495.121 92.48440000000001 489.28499999999997 76.09380000000002 483.371 C 68.46480000000001 480.645 62.16020000000002 477.859 57.41800000000002 475.371 C 60.300800000000024 473.93399999999997 63.710900000000024 472.402 67.80080000000002 470.895 C 86.64060000000002 463.781 116.77700000000002 456.918 153.82000000000002 451.477 C 228.07800000000003 440.477 330.57800000000003 434.457 438.19100000000003 434.47299999999996 C 502.367 434.46899999999994 564.672 436.59399999999994 620.297 440.65199999999993 C 675.902 444.7029999999999 724.918 450.7339999999999 761.988 458.3159999999999 C 786.6370000000001 463.3089999999999 806.105 469.19499999999994 817.504 474.6169999999999 C 818.066 474.8749999999999 818.484 475.1209999999999 819.004 475.3789999999999 C 811.5550000000001 479.28899999999993 800.102 483.8359999999999 786.047 488.0659999999999 C 752.625 498.2419999999999 704.6560000000001 507.38699999999994 652.723 514.059 L 630.918 516.871 L 630.918 821.508" stroke-linecap="round" />
</g>
		<g transform="matrix(0.3017438115281004 0 0 -0.3017438115281004 -0.00007522093898160165 76.7820334878962)"  >
<path style="stroke: none; stroke-width: 1; stroke-dasharray: none; stroke-linecap: butt; stroke-dashoffset: 0; stroke-linejoin: miter; stroke-miterlimit: 4; fill: rgb(29,66,103); fill-rule: nonzero; opacity: 1;"  paint-order="stroke"  transform=" translate(-438.19125, -205.78698517124988)" d="M 730.734 228.324 C 733.293 208.50400000000002 734.445 190.59400000000002 734.445 174.52300000000002 C 734.469 124.102 723.031 92.2695 709.398 74.2461 C 702.551 65.168 695.191 59.2969 687.676 55.5 C 680.148 51.7305 672.355 50.0117 664.422 50 C 647.9300000000001 49.9297 630.789 57.9141 619.4730000000001 71.3711 C 607.816 85.1289 597.1840000000001 101.113 586.4490000000001 117.727 C 570.258 142.602 554.1170000000001 169.023 531.2620000000001 190.746 C 519.8280000000001 201.559 506.52700000000004 211.11700000000002 490.93000000000006 217.84 C 475.3520000000001 224.59 457.61300000000006 228.34 438.1910000000001 228.316 C 412.2890000000001 228.395 389.40600000000006 221.559 370.6050000000001 210.23000000000002 C 356.4650000000001 201.77700000000002 344.59800000000007 191.086 334.2150000000001 179.531 C 318.641 162.16 306.156 142.797 293.977 123.98 C 281.836 105.148 270.027 86.8438 256.914 71.3711 C 245.598 57.9141 228.453 49.9297 211.961 50 C 204.02700000000002 50.0117 196.234 51.7305 188.711 55.5 C 177.49200000000002 61.1953 166.363 71.5469 157.316 90.4375 C 148.344 109.273 141.922 136.766 141.938 174.523 C 141.938 190.594 143.08999999999997 208.504 145.648 228.324 C 156.46099999999998 311.898 180.129 367.80100000000004 203.965 404.996 C 184.836 406.93 166.707 409.11699999999996 149.738 411.57399999999996 C 126.465 369.1329999999999 105.953 311.57399999999996 96.0625 234.72299999999996 C 93.2578 213.00799999999995 91.9375 192.98399999999995 91.9375 174.52299999999997 C 91.9609 116.855 104.77 73.9258 127.016 44.207 C 138.109 29.4219 151.594 18.1758 166.258 10.8242 C 180.91 3.44922 196.629 -0.0117188 211.961 0 C 243.996 0.0703125 274.31600000000003 14.6211 295.082 39.0742 C 309.289 55.882799999999996 320.98 73.6875 331.918 90.56639999999999 C 348.234 115.94099999999999 363.109 139.10199999999998 379.453 154.398 C 387.61699999999996 162.09799999999998 395.965 167.914 405.262 171.934 C 414.586 175.93 424.996 178.293 438.19100000000003 178.316 C 455.77700000000004 178.234 468.44500000000005 174.199 480.129 167.313 C 488.855 162.10199999999998 497 154.99599999999998 504.98400000000004 146.10899999999998 C 516.965 132.82 528.344 115.57799999999997 540.4060000000001 96.85549999999998 C 552.508 78.1484 565.324 57.9844 581.301 39.0781 C 602.066 14.6172 632.387 0.0703125 664.422 0 C 679.758 -0.0117188 695.4730000000001 3.44922 710.125 10.8242 C 732.18 21.851599999999998 751.32 41.6445 764.23 68.9883 C 777.215 96.3828 784.4300000000001 131.215 784.445 174.523 C 784.445 192.98399999999998 783.125 213.00799999999998 780.3240000000001 234.723 L 755.527 231.52300000000002 L 780.3240000000001 234.723 C 770.422 311.60200000000003 749.898 369.10900000000004 726.613 411.559 C 709.676 409.113 691.543 406.92600000000004 672.426 404.99600000000004 C 696.25 367.80100000000004 719.9300000000001 311.891 730.734 228.32400000000004" stroke-linecap="round" />
</g>
		<g transform="matrix(0.3017438115281004 0 0 -0.3017438115281004 0.005884219338724961 -37.21482164712867)"  >
<path style="stroke: none; stroke-width: 1; stroke-dasharray: none; stroke-linecap: butt; stroke-dashoffset: 0; stroke-linejoin: miter; stroke-miterlimit: 4; fill: rgb(29,66,103); fill-rule: nonzero; opacity: 1;"  paint-order="stroke"  transform=" translate(-438.211, -583.5804999999999)" d="M 245.484 610.273 C 302.836 604.113 368.355 600.602 438.211 600.602 C 508.063 600.602 573.582 604.1129999999999 630.934 610.273 L 630.934 566.066 C 574.41 559.7850000000001 508.53099999999995 556.1410000000001 438.21099999999996 556.145 C 367.88699999999994 556.141 302.0079999999999 559.785 245.48399999999995 566.066 z M 641.789 517.0120000000001 L 634.785 517.9140000000001 L 634.785 661.016 C 577.402 654.449 510.203 650.598 438.211 650.602 C 366.215 650.598 299.02 654.449 241.637 661.016 L 241.637 517.91 L 234.633 517.0079999999999 C 294.527 510.1089999999999 363.93399999999997 506.1479999999999 438.211 506.1449999999999 C 512.484 506.1479999999999 581.8910000000001 510.1089999999999 641.789 517.012" stroke-linecap="round" />
</g>
		<g transform="matrix(0.3017438115281004 0 0 -0.3017438115281004 0.005884219338724961 -37.10272332483166)"  >
<path style="stroke: none; stroke-width: 1; stroke-dasharray: none; stroke-linecap: butt; stroke-dashoffset: 0; stroke-linejoin: miter; stroke-miterlimit: 4; fill: rgb(255,255,255); fill-rule: nonzero; opacity: 1;"  paint-order="stroke"  transform=" translate(-438.211, -583.2089983551798)" d="M 630.938 566.066 L 630.938 610.273 C 573.582 604.113 508.063 600.602 438.211 600.602 C 368.355 600.602 302.836 604.1129999999999 245.484 610.273 L 245.484 566.066 C 302.012 559.7850000000001 367.887 556.1410000000001 438.211 556.145 C 508.531 556.141 574.4100000000001 559.785 630.938 566.066" stroke-linecap="round" />
</g>
</g>
</g>
</svg>