<svg id="Calque_1" data-name="Calque 1" xmlns="http://www.w3.org/2000/svg" viewBox="0 0 1400 1024"><defs><style>.cls-1{fill:#fff;}.cls-2{fill:#fadc4a;}</style></defs><title>Plan de travail 1</title><path class="cls-1" d="M537.75,677.92,505.23,502l-32,176.58H375.8l-53-399.45H419.4c1.49,23.17,3.36,45.45,4.29,67.77,2.75,66.31,5.06,132.63,7.82,198.94.19,4.59,2.71,9.09,4.67,15.3L477.69,381h62.47l41,187.45,1.49.29c0-6.14-.21-12.28,0-18.41,2.48-63.8,4.8-127.6,7.68-191.38,1.18-26.13,3.64-52.21,5.6-79.54h90.69L638.36,677.92Z"/><path class="cls-1" d="M869.36,467.24l51.2-188.17h96.33V677.88H936.4l8.32-270.22-1.72-.74c-6.59,22.73-13,45.5-19.8,68.18-8.82,29.5-17.43,59.08-27.38,88.2-1.54,4.51-9.62,9.25-15,9.61-36.29,2.43-36.89,2.24-47.6-31.93-13.94-44.49-26.85-89.3-40.19-134,2.39,90.08,4.77,180.15,7.18,271.28H720.31V278.24c29.92,0,60-.43,90,.54,3.73.12,9.19,7.07,10.52,11.79C837.07,348.35,852.72,406.31,869.36,467.24Z"/><path class="cls-1" d="M1.28,274.63c60,3.77,119.55,1.68,176.66,12.58,70.79,13.52,111.69,68.48,121.21,142.05C305.31,476.8,303.9,523,288,568.78c-21.07,60.74-63,99-126,105.62-52.6,5.51-106.23,1.13-160.75,1.13ZM91.74,601.74c49,10.33,103.57-22.08,108.73-73.74,2.74-27.39,4.81-55.17,3.39-82.57C200.74,385.15,155.2,347,91.74,355.66Z"/><rect class="cls-2" x="1116.21" y="670.43" width="283.79" height="78.83"/></svg>